<svg xmlns="http://www.w3.org/2000/svg" viewBox="0 0 192 192" width="40" height="40">
    <style>
        tspan { white-space:pre }
        .shp0 { fill: #f4483c }
    </style>
    <g id="#f4483cff">
        <path id="Layer" fill-rule="evenodd" class="shp0"
              d="M85.38 22.44C90.58 21.79 95.83 21.89 101.06 21.98C124.75 22.67 147.59 35.55 160.74 55.22C167.47 65.46 170.76 77.84 170.08 90.07C169.82 106.99 157.01 122.18 141.13 127.09C133.31 129.6 125.01 128.58 116.95 128.78C113.84 128.89 110.52 129.05 107.81 130.77C104.14 133.13 101.95 137.58 102.19 141.92C102.79 147.49 108.04 151.34 108.31 157.01C108.7 161.06 107.01 165.25 103.75 167.73C101.36 169.77 98.07 170.02 95.06 170.08C84.04 170.19 72.97 167.75 63.09 162.83C50.28 156.39 39.37 146.27 31.97 133.99C25.02 122.65 21.62 109.27 21.88 96C21.62 82.98 24.86 69.83 31.56 58.63C42.93 39.41 62.99 25.07 85.38 22.44ZM74.32 38.47C70.12 38.9 66.24 41.61 64.43 45.43C62.2 49.94 63.13 55.77 66.72 59.31C69.49 62.28 73.78 63.63 77.77 62.87C84.49 61.73 89.55 54.21 87.43 47.59C85.93 41.96 80.17 37.79 74.32 38.47ZM115.32 38.46C109.99 38.93 105.45 43.21 104.36 48.39C102.77 55.14 108.28 62.39 115.12 62.99C119.09 63.49 123.21 61.84 125.78 58.78C129.14 55.03 129.74 49.13 127.23 44.77C124.93 40.6 120.08 37.96 115.32 38.46ZM48.43 71.45C44.04 72.3 40.14 75.63 38.95 80C37.34 85.09 39.43 91.15 44 93.99C48.89 97.26 56.05 96.37 59.96 91.95C63.09 88.72 63.71 83.73 62.46 79.55C60.72 73.83 54.21 70.25 48.43 71.45ZM139.4 71.36C136.89 71.78 134.5 72.92 132.64 74.65C127.54 79.32 127.67 88.52 133.06 92.93C137.26 96.7 144.08 96.98 148.59 93.6C153.02 90.48 154.73 84.26 152.81 79.24C150.97 73.88 144.96 70.43 139.4 71.36Z"/>
    </g>
</svg>
